<?xml version="1.0" standalone="no"?>
<!DOCTYPE svg PUBLIC "-//W3C//DTD SVG 20010904//EN"
 "http://www.w3.org/TR/2001/REC-SVG-20010904/DTD/svg10.dtd">
<svg version="1.0" xmlns="http://www.w3.org/2000/svg"
 width="512.000000pt" height="512.000000pt" viewBox="0 0 512.000000 512.000000"
 preserveAspectRatio="xMidYMid meet">

<g transform="translate(0.000000,512.000000) scale(0.100000,-0.100000)"
fill="#000000" stroke="none">
<path d="M0 2560 l0 -2560 2560 0 2560 0 0 2560 0 2560 -2560 0 -2560 0 0
-2560z m2760 1206 c111 -28 270 -99 367 -163 81 -53 204 -173 274 -266 241
-320 296 -788 139 -1184 -129 -325 -419 -594 -745 -692 -91 -27 -250 -51 -344
-51 -96 0 -261 25 -369 56 -411 118 -746 483 -817 891 -19 109 -19 326 0 434
68 389 360 766 703 910 182 76 314 99 527 95 131 -3 179 -9 265 -30z"/>
<path d="M2323 3689 c-108 -10 -187 -29 -291 -70 -71 -28 -212 -106 -212 -116
0 -8 88 -91 165 -158 39 -33 94 -81 123 -107 l54 -48 201 0 c111 0 231 -5 267
-11 75 -12 159 -47 212 -89 20 -17 40 -30 45 -30 9 1 176 228 181 246 3 11
-176 212 -203 227 -10 5 -46 -22 -119 -92 -99 -94 -142 -128 -152 -119 -7 8
46 72 156 190 l110 116 -63 20 c-120 39 -316 56 -474 41z"/>
<path d="M1669 3363 c-210 -219 -329 -504 -329 -788 0 -101 34 -299 50 -293 5
2 69 62 142 133 180 177 262 251 311 282 67 42 164 73 235 73 59 0 67 3 110
39 59 49 93 66 160 80 124 26 208 5 286 -74 l54 -53 25 26 c34 38 137 177 137
187 0 12 -62 63 -111 89 -81 45 -155 56 -372 56 -132 0 -206 4 -220 12 -12 6
-76 59 -142 117 -177 156 -231 201 -242 201 -6 0 -48 -39 -94 -87z"/>
<path d="M2790 2784 c-58 -74 -103 -141 -102 -147 25 -85 2 -204 -50 -263 -87
-99 -244 -105 -346 -11 -21 19 -26 20 -85 9 -34 -7 -88 -13 -120 -14 -32 -1
-60 -5 -63 -10 -3 -4 22 -35 56 -67 214 -207 500 -245 723 -97 171 114 255
337 202 540 -18 69 -82 196 -99 196 -6 -1 -58 -62 -116 -136z"/>
<path d="M2392 2704 c-50 -35 -68 -125 -37 -185 40 -76 158 -45 181 48 11 43
-13 100 -54 128 -43 29 -59 31 -90 9z"/>
<path d="M1730 2319 c-99 -10 -232 -35 -287 -54 -26 -9 -39 -20 -41 -34 -5
-32 78 -196 146 -287 101 -136 232 -244 399 -328 80 -40 98 -43 107 -20 6 16
72 120 202 320 l72 111 -47 23 c-101 48 -169 98 -258 187 l-93 93 -58 -1 c-31
-1 -95 -6 -142 -10z"/>
</g>
</svg>
