<?xml version="1.0" standalone="no"?>
<!DOCTYPE svg PUBLIC "-//W3C//DTD SVG 20010904//EN"
 "http://www.w3.org/TR/2001/REC-SVG-20010904/DTD/svg10.dtd">
<svg version="1.0" xmlns="http://www.w3.org/2000/svg"
 width="200.000000pt" height="200.000000pt" viewBox="0 0 200.000000 200.000000"
 preserveAspectRatio="xMidYMid meet">

<g transform="translate(0.000000,200.000000) scale(0.100000,-0.100000)"
fill="#000000" stroke="none">
<path d="M830 1845 c-269 -54 -514 -253 -621 -503 -16 -37 -29 -75 -29 -85 0
-36 24 -10 50 54 127 313 432 519 770 519 411 0 757 -299 821 -710 14 -94 6
-232 -20 -332 -20 -77 -87 -228 -101 -228 -4 0 -36 9 -70 20 -79 25 -122 25
-195 0 -32 -11 -75 -20 -95 -20 -20 0 -63 9 -95 20 -32 11 -77 20 -100 20 -23
0 -68 -9 -100 -20 -32 -11 -74 -20 -94 -19 -43 0 -147 34 -144 45 1 5 10 29
19 54 33 92 -2 219 -86 311 l-40 44 -35 -40 c-20 -22 -50 -68 -67 -103 -58
-118 -40 -236 51 -335 l41 -44 0 -127 c0 -111 -2 -126 -17 -126 -22 0 -114 52
-180 102 l-53 40 0 155 0 154 39 47 c93 109 111 229 52 344 -17 35 -47 81 -67
103 l-36 40 -38 -44 c-121 -140 -130 -297 -24 -427 l44 -54 0 -141 0 -142 -21
19 c-41 37 -135 190 -163 264 -36 97 -56 203 -56 296 0 59 -3 74 -15 74 -21 0
-20 -135 1 -238 59 -288 267 -535 535 -636 310 -116 656 -49 891 172 172 162
262 353 275 582 13 247 -66 465 -235 642 -171 179 -385 269 -630 267 -54 0
-126 -7 -162 -14z m-420 -752 l-1 -58 -19 24 c-11 13 -20 28 -20 35 0 12 28
56 36 56 2 0 4 -26 4 -57z m63 32 c17 -24 17 -26 0 -55 -9 -17 -21 -30 -25
-30 -4 0 -8 25 -8 55 0 61 6 66 33 30z m54 -124 c5 -37 2 -45 -33 -83 -21 -24
-41 -44 -46 -46 -4 -2 -8 20 -8 48 0 42 6 60 32 96 36 50 47 47 55 -15z m-143
11 c20 -30 26 -50 26 -92 l0 -53 -26 24 c-55 51 -66 75 -54 119 6 22 14 40 19
40 5 0 20 -17 35 -38z m306 -127 c0 -30 -3 -55 -6 -55 -8 0 -43 43 -44 53 0
13 32 57 41 57 5 0 9 -25 9 -55z m65 14 c4 -12 -2 -29 -14 -45 l-21 -27 0 58
c0 49 2 56 15 45 8 -6 17 -20 20 -31z m-345 -113 c0 -29 0 -29 -21 -10 -25 23
-59 86 -59 111 0 13 12 5 40 -27 26 -30 39 -55 40 -74z m106 70 c-19 -46 -54
-96 -67 -96 -24 0 -6 54 32 95 23 25 44 44 46 41 2 -2 -3 -20 -11 -40z m174
-145 c0 -28 -4 -51 -8 -51 -4 0 -24 20 -45 44 -38 46 -45 75 -27 122 l10 26
35 -45 c29 -38 35 -54 35 -96z m109 93 l12 -45 -43 -48 -43 -48 -3 53 c-2 44
2 60 24 93 15 23 30 41 34 41 4 0 13 -21 19 -46z m-109 -229 c0 -17 -5 -25
-12 -23 -16 6 -64 84 -73 118 -5 21 1 18 39 -22 31 -32 46 -55 46 -73z m86 48
c-13 -27 -32 -55 -40 -62 -14 -12 -16 -9 -16 20 0 25 9 43 37 71 46 47 53 36
19 -29z m74 -73 c34 -11 82 -20 105 -20 23 0 68 9 100 20 32 11 72 20 90 20
18 0 58 -9 90 -20 32 -11 79 -20 104 -20 26 0 72 9 104 20 31 11 69 20 85 20
31 0 132 -27 145 -39 4 -4 -7 -26 -24 -49 -34 -47 -54 -51 -112 -27 -47 19
-147 19 -194 0 -45 -19 -119 -19 -173 0 -55 20 -149 19 -199 -1 -26 -10 -59
-14 -93 -11 -65 5 -158 29 -158 40 0 7 60 87 65 87 1 0 31 -9 65 -20z m-60
-125 c23 -8 66 -15 95 -15 29 0 72 7 95 15 23 8 64 15 90 15 26 0 67 -7 90
-15 23 -8 66 -15 95 -15 29 0 72 7 95 15 23 8 64 15 89 15 53 0 144 -27 136
-41 -3 -5 -33 -30 -67 -55 l-61 -47 -46 13 c-74 22 -137 24 -181 6 -50 -20
-95 -20 -150 -1 -55 19 -105 19 -164 -1 -49 -17 -108 -15 -158 5 -26 10 -28
15 -28 66 0 62 3 64 70 40z m270 -140 c23 -8 59 -15 80 -15 21 0 57 7 80 15
23 8 57 15 75 15 37 0 95 -18 95 -30 0 -10 -135 -63 -210 -81 -83 -21 -308
-17 -390 7 -64 19 -65 19 -68 58 -3 38 -3 38 25 31 60 -15 129 -16 168 -1 52
19 93 19 145 1z"/>
<path d="M945 1754 c-14 -15 -25 -38 -25 -51 0 -21 -3 -23 -22 -16 -46 15
-108 4 -108 -20 0 -10 13 -13 53 -9 40 3 56 0 66 -12 25 -30 41 -19 41 28 0
36 5 49 25 64 14 11 25 25 25 31 0 20 -31 11 -55 -15z"/>
<path d="M1080 1720 c0 -6 11 -15 24 -20 30 -11 56 -47 56 -76 0 -33 19 -33
52 -1 24 25 35 29 63 24 20 -3 37 -1 41 5 17 27 -68 39 -101 14 -18 -13 -23
-11 -53 25 -22 25 -42 39 -58 39 -13 0 -24 -5 -24 -10z"/>
<path d="M574 1591 c-17 -10 -36 -32 -42 -47 -9 -22 -20 -30 -42 -31 -106 -8
-156 -129 -83 -205 15 -16 37 -31 48 -34 11 -3 29 -20 40 -37 11 -17 36 -42
55 -55 33 -22 41 -23 130 -17 99 7 142 22 163 55 8 14 23 20 48 20 61 0 119
62 119 127 0 32 -33 91 -55 99 -8 4 -15 18 -15 33 0 34 -23 67 -60 86 -40 21
-77 19 -116 -6 l-34 -21 -31 26 c-37 31 -81 34 -125 7z m111 -36 c14 -13 25
-31 25 -40 0 -24 19 -18 54 20 36 38 62 43 105 20 31 -15 41 -33 41 -71 0 -14
10 -30 24 -39 79 -52 42 -175 -52 -175 -26 0 -45 -9 -74 -35 -30 -28 -47 -36
-76 -35 -20 0 -59 -2 -87 -5 -60 -7 -111 19 -128 65 -8 20 -22 33 -43 40 -46
15 -69 45 -69 90 0 56 35 90 92 90 41 0 44 2 59 39 25 62 86 80 129 36z"/>
<path d="M1360 1555 c0 -33 4 -45 15 -45 11 0 15 12 15 45 0 33 -4 45 -15 45
-11 0 -15 -12 -15 -45z"/>
<path d="M1124 1489 c-3 -6 6 -24 22 -40 21 -22 30 -26 41 -17 11 9 9 16 -13
40 -30 30 -39 34 -50 17z"/>
<path d="M1576 1471 c-19 -20 -24 -31 -16 -36 13 -8 72 44 64 57 -9 14 -19 9
-48 -21z"/>
<path d="M1318 1466 c-105 -28 -176 -127 -165 -231 6 -61 23 -99 64 -139 91
-93 240 -86 325 14 68 78 73 180 15 267 -52 77 -149 113 -239 89z m135 -40
c18 -7 47 -29 64 -49 132 -151 -31 -378 -215 -302 -71 30 -121 102 -122 176 0
56 45 135 93 164 48 29 127 34 180 11z"/>
<path d="M1020 1245 c0 -11 12 -15 45 -15 33 0 45 4 45 15 0 11 -12 15 -45 15
-33 0 -45 -4 -45 -15z"/>
<path d="M1640 1245 c0 -11 11 -15 40 -15 29 0 40 4 40 15 0 11 -11 15 -40 15
-29 0 -40 -4 -40 -15z"/>
<path d="M154 1165 c-7 -30 3 -62 15 -49 5 5 12 24 16 42 5 25 3 32 -9 32 -9
0 -18 -11 -22 -25z"/>
<path d="M1146 1041 c-41 -43 -23 -61 20 -20 18 18 31 36 28 41 -9 14 -19 9
-48 -21z"/>
<path d="M1554 1059 c-3 -6 7 -25 25 -42 24 -25 33 -29 43 -19 9 9 6 18 -17
42 -31 33 -40 36 -51 19z"/>
<path d="M1360 940 c0 -29 4 -40 15 -40 11 0 15 11 15 40 0 29 -4 40 -15 40
-11 0 -15 -11 -15 -40z"/>
<path d="M1070 805 c0 -13 40 -15 300 -15 260 0 300 2 300 15 0 13 -40 15
-300 15 -260 0 -300 -2 -300 -15z"/>
<path d="M930 675 c0 -13 36 -15 265 -15 229 0 265 2 265 15 0 13 -36 15 -265
15 -229 0 -265 -2 -265 -15z"/>
</g>
</svg>
